<svg id="visual" viewBox="0 0 900 600" width="900" height="600" xmlns="http://www.w3.org/2000/svg" xmlns:xlink="http://www.w3.org/1999/xlink" version="1.1"><rect x="0" y="0" width="900" height="600" fill="#002233"></rect><path d="M0 364L18.8 386.8C37.7 409.7 75.3 455.3 112.8 468.2C150.3 481 187.7 461 225.2 449.2C262.7 437.3 300.3 433.7 337.8 446.3C375.3 459 412.7 488 450.2 492.8C487.7 497.7 525.3 478.3 562.8 459.8C600.3 441.3 637.7 423.7 675.2 423.7C712.7 423.7 750.3 441.3 787.8 442.7C825.3 444 862.7 429 881.3 421.5L900 414L900 601L881.3 601C862.7 601 825.3 601 787.8 601C750.3 601 712.7 601 675.2 601C637.7 601 600.3 601 562.8 601C525.3 601 487.7 601 450.2 601C412.7 601 375.3 601 337.8 601C300.3 601 262.7 601 225.2 601C187.7 601 150.3 601 112.8 601C75.3 601 37.7 601 18.8 601L0 601Z" fill="#0066FF" stroke-linecap="round" stroke-linejoin="miter"></path></svg>